<?xml version="1.0" encoding="UTF-8"?>
<!-- Generated by Pixelmator Pro 3.7 -->
<svg width="144" height="128" viewBox="0 0 144 128" xmlns="http://www.w3.org/2000/svg">
    <path id="Path" fill="#ffffff" stroke="none" d="M 31.213242 9.245422 C 47.722595 21.61544 65.48027 46.696686 72 60.156746 C 78.520218 46.697685 96.276917 21.615196 112.786758 9.245422 C 124.699036 0.31971 144 -6.586487 144 15.389427 C 144 19.778313 141.478745 52.258377 140.000015 57.531395 C 134.85997 75.864029 116.129791 80.539856 99.468994 77.709831 C 128.591751 82.656746 136.000305 99.042732 120.000664 115.428711 C 89.614182 146.548889 76.326454 107.620537 72.920105 97.645683 C 72.295944 95.817047 72.003868 94.961601 71.999573 95.689011 C 71.995255 94.961571 71.703209 95.817047 71.079041 97.645683 C 67.674187 107.620537 54.386715 146.549896 23.998493 115.428711 C 7.998604 99.042732 15.406908 82.655754 44.530163 77.709831 C 27.868868 80.539856 9.138438 75.864006 3.999128 57.531395 C 2.520348 52.257889 -0.000844 19.777824 -0.000844 15.389427 C -0.000844 -6.586487 19.300619 0.31971 31.212397 9.245422 Z"/>
</svg>
