<?xml version="1.0" encoding="UTF-8"?>
<svg id="Layer_1" xmlns="http://www.w3.org/2000/svg" version="1.1" viewBox="0 0 144 144">
  <defs><style>.st0 { fill: #fff; }</style></defs>
  <path id="Path" class="st0" d="M31.2132,17.2454c16.5094,12.37,34.267,37.4513,40.7868,50.9113,6.5202-13.4591,24.2769-38.5415,40.7868-50.9113,11.9123-8.9257,31.2132-15.8319,31.2132,6.144,0,4.3889-2.5213,36.8689-4,42.142-5.14,18.3326-23.8702,23.0085-40.531,20.1784,29.1228,4.9469,36.5313,21.3329,20.5317,37.7189-30.3865,31.1202-43.6742-7.8082-47.0806-17.783-.6242-1.8286-.9162-2.6841-.9205-1.9567-.0043-.7274-.2964.128-.9205,1.9567-3.4049,9.9749-16.6923,48.9042-47.0805,17.783-15.9999-16.386-8.5916-32.773,20.5317-37.7189-16.6613,2.83-35.3917-1.8458-40.531-20.1784C2.5203,60.2579-.0008,27.7778-.0008,23.3894-.0008,1.4135,19.3006,8.3197,31.2124,17.2454h.0008Z"/>
</svg>