<?xml version="1.0" encoding="UTF-8"?>
<!-- Generated by Pixelmator Pro 3.7 -->
<svg width="128" height="99" viewBox="0 0 128 99" xmlns="http://www.w3.org/2000/svg">
    <path id="Path" fill="#ffffff" fill-rule="evenodd" stroke="none" d="M -0.16285 98.136055 L 128.260559 98.136055 L 128.260559 0.589752 L -0.16285 0.589752 L -0.16285 98.136055 Z M 112.529259 9.688843 L 71.539948 50.667431 C 67.354713 54.874538 59.912468 54.776707 55.645798 50.50436 L 14.933334 9.688843 L 112.480408 9.688843 Z M 8.924172 16.048439 L 42.14555 49.411819 L 8.826464 82.840424 L 8.891603 16.081055 Z M 14.917048 89.151093 L 48.268703 55.80402 L 49.701782 57.173779 C 57.58371 64.674835 70.106865 64.674835 77.630539 57.173779 L 79.063614 55.738796 L 112.610687 89.167404 L 14.900763 89.167404 Z M 118.912979 82.791504 L 85.593895 49.444431 L 118.880409 16.064743 L 118.880409 82.840424 Z"/>
</svg>
