<?xml version="1.0" encoding="UTF-8"?>
<svg width="128" height="128" viewBox="0 0 128 128" xmlns="http://www.w3.org/2000/svg">
    <path id="path833" fill="#ffffff" fill-rule="evenodd" stroke="none" d="M 64 0 C 28.639999 0 0 28.639999 0 64 C 0 92.32 18.32 116.239998 43.759998 124.720001 C 46.959999 125.279999 48.16 123.360001 48.16 121.68 C 48.16 120.160004 48.080002 115.120003 48.080002 109.760002 C 32 112.720001 27.84 105.839996 26.559999 102.239998 C 25.84 100.400002 22.719999 94.720001 20 93.199997 C 17.76 92 14.56 89.040001 19.92 88.959999 C 24.959999 88.879997 28.559999 93.599998 29.76 95.519997 C 35.52 105.199997 44.720001 102.480003 48.400002 100.800003 C 48.959999 96.639999 50.639999 93.839996 52.48 92.239998 C 38.240002 90.639999 23.360001 85.120003 23.360001 60.639999 C 23.360001 53.68 25.84 47.919998 29.92 43.440002 C 29.280001 41.839996 27.040001 35.279999 30.559999 26.479996 C 30.559999 26.479996 35.919998 24.800003 48.16 33.040001 C 53.279999 31.599998 58.720001 30.879997 64.160004 30.879997 C 69.599998 30.879997 75.040001 31.599998 80.160004 33.040001 C 92.400002 24.720001 97.760002 26.479996 97.760002 26.479996 C 101.279999 35.279999 99.040001 41.839996 98.400002 43.440002 C 102.480003 47.919998 104.959999 53.599998 104.959999 60.639999 C 104.959999 85.199997 90 90.639999 75.760002 92.239998 C 78.080002 94.239998 80.080002 98.080002 80.080002 104.080002 C 80.080002 112.639999 80 119.519997 80 121.68 C 80 123.360001 81.199997 125.360001 84.400002 124.720001 C 109.68 116.239998 128 92.239998 128 64 C 128 28.639999 99.360001 0 64 0 Z"/>
</svg>
