<?xml version="1.0" encoding="UTF-8"?>
<svg id="Layer_1" xmlns="http://www.w3.org/2000/svg" version="1.1" viewBox="0 0 188 188">
  <defs><style>.st0 { fill: #fff; fill-rule: evenodd; }</style></defs>
  <path id="_x2D_HN" class="st0" d="M188.3919,158h-12.1081l-23.6658-41.1597v41.1597h-11.2825v-57.9459h12.6978l23.0762,40.4521v-40.4521h11.2826v57.9459ZM176.3231,87.946v-25.8673h-22.6437v25.8673h-11.9902V30h11.9902v22.0934h22.6437v-22.0934h12.0295v57.946h-12.0295Z"/>
  <path id="Shape" class="st0" d="M88.4952,61.6312h15.4878l-10.4891,35.5647c-.8195,2.8954-1.4067,5.0397-1.7618,6.4328-.3551,1.3931-.5327,2.6086-.5327,3.6466,0,1.6389.5463,3.1822,1.6389,4.63,1.0927,1.4477,2.8408,2.1716,5.2446,2.1716,4.6983,0,9.4101-3.073,14.1357-9.219,4.7256-6.146,7.0883-14.2996,7.0883-24.4609,0-15.0235-6.4464-25.813-19.3393-32.3687-8.0854-4.152-17.1813-6.2279-27.2881-6.2279-18.5746,0-33.4886,5.6816-44.7426,17.0448-10.1614,10.2706-15.242,22.5898-15.242,36.9577,0,15.9523,5.9547,28.5992,17.8643,37.9411,10.5438,8.2493,23.4092,12.3739,38.5967,12.3739,10.3799,0,20.0768-1.9121,29.0909-5.7362,4.9168-2.0213,9.9974-4.8894,15.242-8.6044l1.9667-1.3931,5.9821,9.178c-7.7576,6.0094-16.157,10.5847-25.1985,13.726-9.0415,3.1413-18.4242,4.7119-28.1485,4.7119-22.6719,0-40.2355-7.0473-52.6914-21.1421C5.0739,125.1668-.0887,111.318-.0887,95.3111-.0887,77.3922,6.3577,62.2049,19.2507,49.749c13.5485-13.1661,30.8936-19.749,52.0358-19.749,17.2088,0,31.4673,4.507,42.7759,13.5211,11.9096,9.5058,17.8643,22.1254,17.8643,37.8592,0,12.4013-3.7695,23.0405-11.3086,31.9181-7.5391,8.8775-16.1433,13.3163-25.813,13.3163-5.0261,0-8.8912-1.4204-11.5954-4.2612-2.7042-2.8408-4.0563-5.7635-4.0563-8.7682,0-.3824.0136-.8058.041-1.2702.0273-.4644.0683-.9697.1229-1.516-2.076,3.9334-4.3978,7.0747-6.9654,9.4238-4.6437,4.2066-10.216,6.3099-16.717,6.3099-6.6104,0-12.1143-2.3764-16.5122-7.1293-4.3978-4.7529-6.5967-11.3905-6.5967-19.9129,0-9.8882,3.3598-19.148,10.0794-27.7798,6.7196-8.6317,14.9688-12.9475,24.7478-12.9475,5.7363,0,10.1886,1.5843,13.3572,4.7529,2.4038,2.4584,4.0154,5.2719,4.8348,8.4405l2.9501-10.3252ZM53.1764,110.799c1.8028,2.4584,4.3704,3.6876,7.7029,3.6876,5.8455,0,10.6393-4.4387,14.3816-13.3162,3.7422-8.8776,5.6133-15.8566,5.6133-20.9373,0-2.8954-.8741-5.3265-2.6223-7.2932-1.7482-1.9667-4.0973-2.9501-7.0474-2.9501-5.6816,0-10.571,3.5373-14.6684,10.612-4.0973,7.0747-6.146,13.9172-6.146,20.5275,0,3.9881.9287,7.2113,2.7862,9.6697Z"/>
</svg>