<?xml version="1.0" encoding="UTF-8"?>
<!-- Generated by Pixelmator Pro 3.7 -->
<svg width="188" height="128" viewBox="0 0 188 128" xmlns="http://www.w3.org/2000/svg">
    <path id="-HN" fill="#ffffff" fill-rule="evenodd" stroke="none" d="M 188.391907 128 L 176.283783 128 L 152.617935 86.840294 L 152.617935 128 L 141.335388 128 L 141.335388 70.054054 L 154.033173 70.054054 L 177.109344 110.506142 L 177.109344 70.054054 L 188.391907 70.054054 Z M 176.32309 57.945953 L 176.32309 32.078629 L 153.679367 32.078629 L 153.679367 57.945953 L 141.689194 57.945953 L 141.689194 0 L 153.679367 0 L 153.679367 22.093376 L 176.32309 22.093376 L 176.32309 0 L 188.35257 0 L 188.35257 57.945953 Z"/>
    <path id="Shape" fill="#ffffff" fill-rule="evenodd" stroke="none" d="M 88.495209 31.631248 L 103.983047 31.631248 L 93.493927 67.1959 C 92.674469 70.091339 92.087204 72.235611 91.732086 73.628677 C 91.376968 75.021774 91.199432 76.237289 91.199432 77.275291 C 91.199432 78.9142 91.745728 80.45752 92.838348 81.905243 C 93.931 83.352982 95.679153 84.076828 98.082916 84.076828 C 102.781189 84.076828 107.493042 81.003876 112.218643 74.857864 C 116.944229 68.711876 119.306992 60.558311 119.306992 50.396927 C 119.306992 35.37339 112.860626 24.583885 99.967667 18.028183 C 91.882294 13.876198 82.786346 11.800247 72.679581 11.800247 C 54.105026 11.800247 39.190971 17.481812 27.936951 28.84507 C 17.775566 39.115707 12.694946 51.43486 12.694946 65.802818 C 12.694946 81.755089 18.649643 94.401993 30.559235 103.743927 C 41.103027 111.99321 53.96846 116.117798 69.155914 116.117798 C 79.535797 116.117798 89.232681 114.205727 98.246811 110.381561 C 103.163589 108.360214 108.244202 105.492119 113.488815 101.777206 L 115.45549 100.384125 L 121.437592 109.562088 C 113.679977 115.571526 105.280594 120.14679 96.23912 123.288094 C 87.197662 126.429382 77.814911 128 68.090607 128 C 45.418701 128 27.855072 120.95269 15.399178 106.857872 C 5.073906 95.166824 -0.088661 81.318047 -0.088661 65.311134 C -0.088661 47.392151 6.357712 32.204933 19.250656 19.749039 C 32.799156 6.582954 50.144272 0 71.286499 0 C 88.495316 0 102.753799 4.506996 114.062424 13.521118 C 125.972015 23.026939 131.926712 35.64653 131.926712 51.38028 C 131.926712 63.781532 128.157242 74.420792 120.618118 83.29834 C 113.079025 92.175888 104.474777 96.614594 94.805069 96.614594 C 89.779007 96.614594 85.913895 95.194199 83.209686 92.353394 C 80.505463 89.512589 79.153351 86.589851 79.153351 83.585152 C 79.153351 83.202713 79.166992 82.779358 79.194305 82.314972 C 79.221649 81.850594 79.262619 81.345291 79.31723 80.798981 C 77.241241 84.732414 74.919464 87.873657 72.351807 90.222794 C 67.708145 94.42939 62.135849 96.532654 55.634766 96.532654 C 49.024414 96.532654 43.520416 94.156227 39.122604 89.40332 C 34.724792 84.650406 32.525932 78.012863 32.525932 69.490387 C 32.525932 59.60215 35.885712 50.342354 42.605316 41.710632 C 49.324936 33.078911 57.574112 28.763123 67.353088 28.763123 C 73.089371 28.763123 77.541702 30.347412 80.710312 33.516014 C 83.11409 35.974396 84.725693 38.787872 85.545135 41.956467 Z M 53.176392 80.798981 C 54.979202 83.25737 57.546814 84.486542 60.879333 84.486542 C 66.724823 84.486542 71.518646 80.047852 75.260895 71.170303 C 79.003128 62.292747 80.874222 55.313728 80.874222 50.233032 C 80.874222 47.337585 80.000137 44.906525 78.251923 42.939835 C 76.503723 40.973114 74.154617 39.989761 71.204544 39.989761 C 65.522934 39.989761 60.633499 43.527054 56.536179 50.601799 C 52.438843 57.676514 50.390213 64.518951 50.390213 71.129326 C 50.390213 75.117378 51.318924 78.340599 53.176392 80.798981 Z"/>
</svg>
