<?xml version="1.0" encoding="UTF-8"?>
<svg id="Layer_1" xmlns="http://www.w3.org/2000/svg" version="1.1" viewBox="0 0 160 160">
  <defs><style>.st0 { fill: #fff; }</style></defs>
  <g id="Group">
    <path id="Path" class="st0" d="M10.6039,114.7141c11.0789,18.8475,29.9811,29.2269,53.2198,29.2269l-.0042.0046h4.8285c30.3011,0,46.1198-17.4279,52.8498-27.816l.0551-.0842c2.09-3.2925,3.8566-6.6368,5.2827-9.9969,19.1037-4.6583,32.8119-21.7959,32.8119-42.2734v-2.4112c0-12.0007-4.0504-22.4893-11.7145-30.3442-7.5459-7.733-18.2798-12.488-31.0367-13.7523-9.59-.9577-16.4753-1.2559-40.8498-1.2559-14.9777,0-29.3837.1218-40.9715,1.5878-9.7624,1.2433-18.5531,5.8093-24.7571,12.8577C3.5671,38.1312-.0039,48.4517-.0039,60.3054-.0039,80.2997.7953,98.1938,10.6039,114.7141ZM36.3525,27.5972c10.7172-1.3568,24.0001-1.508,39.6933-1.508,24.4501,0,30.7884.3025,39.844,1.2056,21.2833,2.1086,33.6571,15.2226,33.6571,34.0659v2.411c0,17.4867-12.8286,31.806-30.1869,33.3097-1.3583,4.5244-3.4702,9.0435-6.3389,13.5679-6.641,10.2488-19.9237,23.2114-44.3738,23.2114h-4.8289c-19.9243,0-35.3186-8.59-44.5257-24.2663-8.1514-13.7144-9.2072-28.9409-9.2072-49.2881h.0042c0-20.0488,12.0758-30.8986,26.2628-32.7091Z"/>
    <path id="path1" class="st0" d="M21.4087,60.4538c0,19.4441,1.2073,31.9533,7.5458,43.5593,7.243,13.4161,20.3745,18.5405,35.3188,18.5405h4.6774c19.6209,0,29.1313-9.497,34.4139-17.7847,2.566-4.2214,4.8286-8.8923,6.0355-14.7732l.9049-3.7679h5.434c12.0757,0,22.4903-9.7953,22.4903-22.3086v-2.2598c0-14.0169-8.7529-21.4056-24-23.2117-8.6015-.7519-13.7335-1.0544-38.1876-1.0544-16.45,0-28.2229.1512-37.1272,1.508-12.5257,1.8104-17.51,8.8925-17.51,21.5526h.0041ZM47.5225,92.5662c-6.3386-6.0321-11.3186-13.7191-11.3186-22.6115h-.0043c0-9.6485,6.9443-18.2383,17.51-18.2383,6.1914,0,10.5657,3.1629,13.4346,7.5356,3.1708-4.3686,7.3985-7.5356,13.5854-7.5356,10.4146,0,17.6571,8.5899,17.6571,18.2383,0,8.8966-4.9799,16.5834-11.4695,22.6115-4.0764,4.0696-10.7134,8.2916-15.2432,11.0047-1.2116.7525-2.7173,1.206-4.5298,1.206-1.5103,0-2.8689-.4535-4.2274-1.206-4.5258-2.713-11.1673-6.9351-15.3944-11.0047ZM114.0853,74.0238c-2.4127,0-3.7708-1.3547-3.7729-3.163v-17.033c0-1.8104,1.3583-3.1671,3.7729-3.1671,7.6973,0,11.9243,4.5239,11.9243,11.7571s-4.2271,11.606-11.9243,11.606Z"/>
  </g>
</svg>