<?xml version="1.0" encoding="UTF-8"?>
<!-- Generated by Pixelmator Pro 3.7 -->
<svg width="160" height="128" viewBox="0 0 160 128" xmlns="http://www.w3.org/2000/svg">
    <g id="Group">
        <path id="Path" fill="#ffffff" stroke="none" d="M 10.603884 98.714081 C 21.682787 117.561531 40.58503 127.940987 63.823669 127.940987 L 63.819485 127.945633 L 68.647964 127.945633 C 98.949051 127.945633 114.767799 110.517693 121.497757 100.129616 L 121.552864 100.045418 C 123.642822 96.752892 125.409454 93.408661 126.835526 90.048515 C 145.939255 85.39019 159.647461 68.252647 159.647461 47.775108 L 159.647461 45.363937 C 159.647461 33.363213 155.597015 22.874619 147.932953 15.019722 C 140.387054 7.286674 129.653107 2.531715 116.896263 1.267372 C 107.306229 0.309662 100.420914 0.011429 76.046471 0.011429 C 61.068748 0.011429 46.662769 0.133247 35.074986 1.599205 C 25.312599 2.842545 16.521893 7.408463 10.317876 14.456886 C 3.567091 22.131187 -0.00389 32.451706 -0.00389 44.305435 C -0.00389 64.299698 0.795273 82.193802 10.603884 98.714081 Z M 36.352467 11.597176 C 47.069675 10.240387 60.352531 10.089165 76.045807 10.089165 C 100.495926 10.089165 106.834198 10.391624 115.889793 11.294716 C 137.173111 13.403351 149.54689 26.517342 149.54689 45.360619 L 149.54689 47.771599 C 149.54689 65.258286 136.718338 79.57756 119.360001 81.081268 C 118.001663 85.605667 115.889793 90.124756 113.02108 94.649155 C 106.380081 104.898003 93.097427 117.86055 68.647301 117.86055 L 63.818359 117.86055 C 43.894108 117.86055 28.499718 109.270569 19.292614 93.594299 C 11.141179 79.87989 10.085444 64.653351 10.085444 44.306236 L 10.089626 44.306236 C 10.089626 24.257469 22.165379 13.4076 36.352467 11.597176 Z"/>
        <path id="path1" fill="#ffffff" stroke="none" d="M 21.40873 44.453751 C 21.40873 63.89785 22.616034 76.407028 28.954491 88.013062 C 36.19751 101.429115 49.328999 106.553543 64.273331 106.553543 L 68.950706 106.553543 C 88.571617 106.553543 98.081985 97.056549 103.364639 88.76889 C 105.930618 84.547501 108.193199 79.876572 109.400162 73.995651 L 110.305061 70.227753 L 115.73909 70.227753 C 127.814766 70.227753 138.22937 60.432411 138.22937 47.919113 L 138.22937 45.659302 C 138.22937 31.642365 129.476517 24.253685 114.229378 22.447578 C 105.627884 21.695656 100.495926 21.393188 76.041824 21.393188 C 59.591835 21.393188 47.818886 21.544357 38.914654 22.901146 C 26.388912 24.711571 21.404613 31.793663 21.404613 44.453751 L 21.40873 44.453751 Z M 47.522457 76.566162 C 41.183868 70.534073 36.203884 62.847107 36.203884 53.954651 L 36.19957 53.954651 C 36.19957 44.306168 43.143898 35.716309 53.70961 35.716309 C 59.901012 35.716309 64.275314 38.879211 67.144234 43.251907 C 70.315025 38.883316 74.54274 35.716309 80.72963 35.716309 C 91.144226 35.716309 98.386726 44.306168 98.386726 53.954651 C 98.386726 62.85128 93.406807 70.538048 86.917183 76.566162 C 82.840828 80.635727 76.203819 84.857788 71.674026 87.570831 C 70.46241 88.323349 68.95668 88.776855 67.144234 88.776855 C 65.633926 88.776855 64.275314 88.323349 62.916847 87.570831 C 58.391037 84.857788 51.749577 80.635727 47.522457 76.566162 Z M 114.085312 58.023819 C 111.672615 58.023819 110.314522 56.669121 110.31237 54.860855 L 110.31237 37.827873 C 110.31237 36.017448 111.6707 34.660789 114.085312 34.660789 C 121.78257 34.660789 126.009628 39.184654 126.009628 46.417862 C 126.009628 53.651062 121.78257 58.023819 114.085312 58.023819 Z"/>
    </g>
</svg>
