<?xml version="1.0" encoding="UTF-8"?>
<!-- Generated by Pixelmator Pro 3.7 -->
<svg width="128" height="128" viewBox="0 0 128 128" xmlns="http://www.w3.org/2000/svg">
    <path id="Path" fill="#ffffff" stroke="none" d="M 127.500694 75.938736 L 127.500694 125.238907 C 127.515511 125.817848 127.311249 126.380913 126.929161 126.815918 C 126.749245 127.019127 126.52697 127.181061 126.278252 127.290085 C 126.030586 127.400154 125.760696 127.454132 125.489746 127.450958 L 102.342583 127.450958 C 102.070572 127.454132 101.801743 127.400154 101.553024 127.290085 C 101.304291 127.181061 101.083092 127.019127 100.90316 126.815918 C 100.515785 126.383034 100.307281 125.818909 100.321037 125.238907 L 100.321037 79.452606 C 100.321037 67.407516 96.426132 59.141426 86.561867 59.141426 C 83.386681 59.25827 80.332146 60.381439 77.837494 62.348686 C 75.34285 64.315933 73.53923 67.02533 72.685959 70.085266 C 71.976509 72.448128 71.66523 74.913147 71.765152 77.378151 L 71.765152 125.291824 C 71.781342 125.870773 71.577179 126.433838 71.193718 126.868835 C 71.014214 127.072052 70.79248 127.235039 70.543869 127.344063 C 70.295349 127.454132 70.02578 127.508102 69.754189 127.503876 L 46.659843 127.503876 C 46.10006 127.476364 45.574245 127.227631 45.19735 126.812744 C 44.820347 126.39785 44.622955 125.850655 44.648888 125.291824 C 44.648888 113.109665 44.945236 53.881187 44.648888 39.942085 C 44.633434 39.368217 44.833683 38.809395 45.209942 38.375656 C 45.384365 38.172554 45.600281 38.008926 45.842972 37.895775 C 46.085659 37.782646 46.349731 37.722527 46.617504 37.71946 L 69.669525 37.71946 C 69.936028 37.715004 70.200523 37.767502 70.445007 37.873344 C 70.689598 37.979187 70.908691 38.13604 71.087776 38.333321 C 71.473877 38.759003 71.685555 39.31456 71.680473 39.889168 L 71.680473 50.737747 L 71.680473 50.409645 C 73.920898 45.897057 77.400375 42.115936 81.711227 39.508667 C 86.022087 36.901413 90.98703 35.575989 96.023941 35.687332 C 113.87912 35.687332 127.246689 48.515114 127.246689 76.076317 L 127.500694 75.938736 Z M 4.440561 127.503876 L 27.534803 127.503876 C 28.094593 127.476364 28.620401 127.227631 28.997406 126.812744 C 29.374298 126.39785 29.571373 125.850655 29.545443 125.291824 L 29.545443 39.889168 C 29.546183 39.34568 29.337784 38.822723 28.96343 38.428574 C 28.589077 38.034538 28.077656 37.799568 27.534803 37.772369 L 4.440561 37.772369 C 4.174058 37.767929 3.909563 37.820427 3.664968 37.926254 C 3.420477 38.032097 3.201389 38.188957 3.022203 38.386246 C 2.636098 38.811935 2.424525 39.367477 2.429501 39.942085 L 2.429501 125.33416 C 2.41627 125.914162 2.624352 126.478287 3.011618 126.911179 C 3.193768 127.105927 3.415715 127.259384 3.662109 127.360992 C 3.908506 127.463654 4.173846 127.512344 4.440561 127.503876 Z"/>
    <path id="path1" fill="#ffffff" stroke="none" d="M 32.437408 16.646744 C 32.39613 20.337692 31.077579 23.900375 28.70624 26.728943 C 26.334791 29.55751 23.056828 31.47744 19.429697 32.162125 C 15.802567 32.846802 12.05055 32.25399 8.811215 30.484558 C 5.571776 28.715134 3.045275 25.878197 1.661314 22.456398 C 0.277354 19.0345 0.12124 15.238869 1.219752 11.715034 C 2.318261 8.191101 4.603238 5.156464 7.686455 3.12709 C 10.769675 1.097824 14.460836 0.199028 18.131889 0.583755 C 21.802946 0.968491 25.227179 2.612816 27.822796 5.237221 C 29.308361 6.739304 30.481276 8.521217 31.273382 10.479668 C 32.065487 12.438133 32.461121 14.534302 32.437408 16.646744 Z"/>
</svg>
