<?xml version="1.0" encoding="UTF-8"?>
<!-- Generated by Pixelmator Pro 3.7 -->
<svg width="128" height="128" viewBox="0 0 128 128" xmlns="http://www.w3.org/2000/svg">
    <path id="Path" fill="#ffffff" stroke="none" d="M 95.530731 1.646408 C 109.739914 3.746597 121.726624 14.584953 123.576904 28.33802 C 124.38298 36.518143 123.983894 48.808983 123.789902 54.78334 C 123.741623 56.270088 123.706047 57.365662 123.70491 57.90937 C 123.70491 58.712219 123.588531 66.042488 123.542053 66.816193 C 122.296715 86.46833 110.042587 94.229073 97.165779 96.701637 C 96.99131 96.754021 96.787491 96.788879 96.583878 96.829636 C 88.420235 98.423729 79.674683 98.848297 71.377327 99.081062 C 69.393135 99.133446 67.41465 99.133446 65.430649 99.133446 C 57.180553 99.135605 48.959408 98.159264 40.939716 96.224693 C 40.897182 96.213669 40.852676 96.212677 40.809746 96.22213 C 40.766819 96.231384 40.726845 96.250877 40.692776 96.278641 C 40.658707 96.306412 40.631729 96.341858 40.614006 96.381836 C 40.596283 96.422005 40.588211 96.465919 40.590572 96.509636 C 40.817234 99.120438 41.384567 101.690491 42.278004 104.15419 C 43.389244 107.004852 47.270397 113.852264 61.700726 113.852264 C 70.085907 113.867615 78.443321 112.891273 86.599091 110.943314 C 86.640442 110.933853 86.683571 110.933662 86.724922 110.942917 C 86.766472 110.952171 86.805458 110.97049 86.838943 110.996681 C 86.872414 111.022865 86.899597 111.056351 86.918503 111.094353 C 86.937401 111.132553 86.947449 111.174301 86.948235 111.216835 L 86.948235 120.862526 C 86.946655 120.908012 86.934837 120.952515 86.913574 120.992889 C 86.892502 121.033058 86.862572 121.068115 86.825943 121.095284 C 84.16098 123.026703 80.535828 124.126328 77.440392 125.109367 C 76.074936 125.540039 74.69194 125.918129 73.291618 126.243843 C 60.562119 129.142944 47.276703 128.441895 34.923126 124.219276 C 23.384596 120.170143 11.607533 110.245216 8.698171 98.31897 C 7.144487 91.861465 6.049772 85.302155 5.422241 78.690063 C 4.514523 68.735992 4.43888 58.758698 4.049026 48.76387 C 3.775548 41.794365 3.932653 34.196487 5.404784 27.343163 C 8.465427 13.427238 21.080379 3.688408 34.893982 1.646408 C 37.291325 1.291527 41.806572 0 62.852921 0 L 63.010067 0 C 84.050514 0 93.133392 1.291527 95.530731 1.646408 Z M 103.176468 77.957123 L 103.176468 43.789787 C 103.180412 36.804726 101.401794 31.258385 97.840637 27.151161 C 94.15168 23.049644 89.328049 20.943748 83.346313 20.943748 C 76.427818 20.943748 71.19104 23.608124 67.699791 28.931351 L 64.324928 34.586189 L 60.955963 28.931351 C 57.464714 23.608124 52.227936 20.943748 45.297821 20.943748 C 39.310375 20.943748 34.486744 23.049644 30.809206 27.151161 C 27.244308 31.262329 25.46176 36.808464 25.46176 43.789787 L 25.46176 77.957123 L 38.996086 77.957123 L 38.996086 44.796257 C 38.996086 37.814941 41.934574 34.25457 47.817257 34.25457 C 54.322609 34.25457 57.587006 38.466553 57.587006 46.785965 L 57.587006 64.937149 L 71.045517 64.937149 L 71.045517 46.785965 C 71.045517 38.466553 74.303993 34.25457 80.809349 34.25457 C 86.727089 34.25457 89.636436 37.814941 89.636436 44.796257 L 89.636436 77.957123 L 103.176468 77.957123 Z"/>
</svg>
