<?xml version="1.0" encoding="UTF-8"?>
<svg id="Layer_1" xmlns="http://www.w3.org/2000/svg" version="1.1" viewBox="0 0 224.1 224.1">
  <defs><style>.st0 { fill: none; } .st1 { fill: #fff; }</style></defs>
  <g id="Layer_2">
    <g id="Layer_1-2">
      <path class="st1" d="M224.1,64.155H0v42h72.76c-.06-3.7,2.64-6.47,6.77-6.47,3.5498-.221,6.6067,2.4776,6.8277,6.0274.0092.1473.0133.295.0123.4426h137.73v-42Z"/>
      <rect class="st1" x="73.1" y="117.645" width="12.86" height="41.37"/>
      <path class="st1" d="M72.76,106.155c-.09,3.55,2.62,6.43,6.68,6.43,4.23,0,6.94-2.88,6.94-6.43h-13.62Z"/>
      <path class="st1" d="M.34,130.845c0-5.16-.17-9.56-.34-13.2h10.83l.59,5.59h.26c2.7406-4.2191,7.4919-6.6934,12.52-6.52,5.33,0,9.56,2.71,11.33,7h.17c1.4275-2.0036,3.2394-3.7033,5.33-5,2.3872-1.3834,5.112-2.0759,7.87-2,8,0,14,5.59,14,17.94v24.36h-12.56v-22.5c0-6-2-9.48-6.09-9.48-2.7414.0519-5.1366,1.8655-5.93,4.49-.3336,1.0682-.5022,2.181-.5,3.3v24.19h-12.52v-23.18c0-5.24-1.86-8.8-5.92-8.8-3.3,0-5.25,2.54-6,4.66-.3732,1.0277-.5463,2.1173-.51,3.21v24.11H.34v-28.17Z"/>
      <path class="st1" d="M96.28,130.845c0-5.16-.17-9.56-.34-13.2h11.16l.6,5.67h.3c2.8743-4.2093,7.6737-6.6898,12.77-6.6,8.46,0,14.81,5.59,14.81,17.77v24.53h-12.91v-22.92c0-5.33-1.86-9-6.51-9-2.9908.0161-5.6276,1.9654-6.52,4.82-.3691,1.0322-.542,2.1243-.51,3.22v23.88h-12.85v-28.17Z"/>
      <path class="st1" d="M184.85,145.735c0,5.41.17,9.81.34,13.28h-11.19l-.57-5.86h-.26c-2.8161,4.3812-7.7353,6.951-12.94,6.76-8.37,0-14.55-5.24-14.55-18v-24.27h12.94v22.25c0,6,1.95,9.65,6.43,9.65,2.8673-.0176,5.4258-1.8042,6.43-4.49.3281-.892.4743-1.8406.43-2.79v-24.62h12.94v28.09Z"/>
      <path class="st1" d="M195.09,147.765c3.4008,1.8881,7.194,2.9596,11.08,3.13,3.89,0,5.5-1.35,5.5-3.47s-1.27-3.13-6.09-4.73c-8.58-2.88-11.85-7.54-11.76-12.44,0-7.7,6.6-13.54,16.83-13.54,4.019-.0643,8.004.7443,11.68,2.37l-2.33,8.89c-2.7748-1.4794-5.8565-2.2909-9-2.37-3.13,0-4.91,1.27-4.91,3.38,0,2,1.61,3,6.68,4.74,7.87,2.71,11.17,6.68,11.25,12.77,0,7.7-6.09,13.37-17.93,13.37-4.6214.1078-9.2028-.8791-13.37-2.88l2.37-9.22Z"/>
      <rect class="st0" x="72.76" y="99.625" width="13.62" height="12.94"/>
    </g>
  </g>
</svg>