<?xml version="1.0" encoding="UTF-8"?>
<svg width="128" height="128" viewBox="0 0 128 128" xmlns="http://www.w3.org/2000/svg">
    <path id="Shape" fill="#ffffff" stroke="none" d="M 35.10857 110.445717 C 35.10857 120.140678 27.249252 128 17.554285 128 C 7.859322 128 -0 120.140678 -0 110.445717 C -0 100.750748 7.859322 92.891434 17.554285 92.891434 C 27.249252 92.891434 35.10857 100.750748 35.10857 110.445717 Z M 84.845711 128 L 59.977142 128 C 59.977142 94.875534 33.124458 68.022858 -0 68.022858 L -0 43.154289 C 46.858997 43.154289 84.845711 81.141006 84.845711 128 Z M -0 25.599998 C 56.553955 25.599998 102.400002 71.446037 102.400002 128 L 128 128 C 128 57.307541 70.692444 0 -0 0 L -0 25.599998 Z"/>
</svg>
